<svg height="351.467512" viewBox="0 0 33.714001 42" width="284.521319" xmlns="http://www.w3.org/2000/svg"><g fill="none" fill-rule="evenodd"><path d="m.1583961.41489189v13.41673011c0 16.463432 16.2715489 26.951513 16.4366849 27.057081.0011 0 .05224.03292.05224.03292.04213-.0023.144916-.07265.144916-.07265 2.768-1.834378 16.575983-11.76227 16.575983-26.933919l.0045-13.50016211z" fill="#a51d31" fill-rule="nonzero"/><path d="m.1583961.41489189v13.41673011c0 16.463432 16.2715489 26.951513 16.4366849 27.057081.0011 0 .05224.03292.05224.03292.04213-.0023.144916-.07265.144916-.07265 2.768-1.834378 16.575983-11.76227 16.575983-26.933919l.0045-13.50016211z" stroke="#231f20" stroke-width=".5"/><path d="m23.718412 3.4275405-.296571.010784c-.0051 0-.417896-.0005675-.417896-.0005675l-.849835.066405c-.0062.0005675-.667847.028946-.667847.028946-.0028 0-1.281773.024973-1.281773.024973l-.137052-.026108s-.05336-.00738-.105597-.015324c-.0264.1078378-.06909.286054-.06909.286054s.02809.3938919.02809.4001351c0 .097622-.0051.7815406-.0051.7815406-.157834.4154594-.494847.4063784-.657175.4012702l-.173.010216c0-.00114-.273542.040865-.273542.040865-.0191.0017-.107844.00795-.131435.00965-.009.029513-.02921.1367838-.02921.1367838l.06403.345081c.0084.036324.02022.080027.02022.080027.0067.027811.0095.049378.238156.099324.0022 0 .04662.010216.0747.017595.107282-.027811.357234-.091946.357234-.091946.02359.00341.1466.044838.1466.044838.107283.036892.316231.1095405.398237.3598378.0039.015892.01011.1594865.01011.1594865l-.0062.5391892c-.0011.018162-.0191.3552973-.0191.3552973l.04269.3496216c.0017.011351.0017.024973.0017.039162 0 .047676-.0051.1015946-.0051.1015946-.0039.017027-.01404.2764054-.01404.2803783.0011.0017.01741.1736757.01741.1736757 0 .1793514-.06516.3291892-.193221.444973l-.183672.075487s-.580786.024973-.724016.031216c-.0337.029514-.0865.089676-.0865.290027l.03033.3365676c.0017-.011919.05504.028946.106721.032919.000561 0 .283652-.00965.283652-.00965.187042-.027243.524056-.073784.727948.2361081l.04999.1679996-.0011.621487c0 .004-.02359 1.086891-.02359 1.090864 0-.0034.0056.02441.0095.05335.255007-.01703.822873-.01533 2.229903-.0079-.02022 0-.03483.01419-.04999.02327.0674-.02781.196591-.05335.451598-.101595.461708.0823.841409.06641 1.209315.04881.0039 0 .724578-.0062.724578-.0062.03202.0028.251074.07946.251074.07946.0011 0 .132559.101595.132559.101595.188165.262216.319039.399568.469009.391054.0528-.06243.144916-.159486.313984-.332027l.04269-.05676.188727-.10954c.0011 0 .659422-.09535.659422-.09535.02134-.0017.03033-.0023 3.613341-.01305 0 0 .26287-.000567.39936-.0011-.0073-.208865-.05167-1.441054-.05167-1.441054 0-.01192.0022-.150405.0022-.150973l-.0022-.06981c0-.2599452.102789-.4364587.305558-.5255668.0191-.00624.461146-.028946.461146-.028946.340384.013054.469572-.0017.529672-.1084054.05448-.07946.06572-.2383784.02921-.3127298-.07077-.1668648-.177493-.1833243-.533604-.1634594-.0051 0-.304996.00568-.304996.00568-.583474-.1187523-.490795-.6522658-.454847-.8531847l-.0011.0005676c0-.00965.02078-.2752703.02078-.2752703-.0022-.0017-.01123-.528973-.01123-.528973-.0062-.099324-.01123-.2048919-.01123-.3144324 0-.1946757.01853-.4052433.08987-.6294325l.125256-.1611891c.217935-.1356487.463955-.1174865.660546-.1027298.296571.023838.30612.0005676.337574-.084.06066-.1549459.04381-.3967297.0022-.5545135-.03483-.037459-.167945-.043135-.466201-.023838-.0062 0-.326903.00681-.326903.00681l-.149409-.04427-.0938-.059027c-.089853-.0573236-.136473-.135648-.137596-.2315669l-.0056-.5743784c0-.0005675-.0056-.5579189-.0056-.5579189 0 .00284-.01011-.2026216-.01011-.2026216 0-.2412162-.02022-.2894594-.0483-.3138649-.09492.00795-.4061.031784-.4061.031784-.0073.0005676-.412841.00908-.412841.00908.0051-.0005676-.290393.00795-.290393.00795 0-.0017-.289831-.036892-.417335-.053351-.000561 0 0 .00227-.000561.00227-.657737.070946-1.343559.070946-1.984445 0 .0062 0 .01011-.00454.01516-.00511-.0073.0005675-.01516.00284-.02528.00454-.0022-.0005676-.0045 0-.0073-.0005676.0028.0005676.0051 0 .0073.0005676-.07751.00965-.232539.024973-.613364.059027-.0062.0005676-.307244.012487-.320724.013054-.0674.027811-.144354.055622-.303312.1084054-.009.00284-.561126.1487027-.561126.1487027-.05617.00341-.438117-.098757-.438117-.098757l-.658329-.1787842c-.02977.00227-.05111.00908-.08818.00908-.02134-.0017-.195468-.041432-.325218-.070378-.0056.00114-.0045.010784-.01067.010784" fill="#fff" fill-rule="nonzero"/><path d="m24.213821 3.1902973c.353864.082865.647627.1782162.988572.273.329711 0 .565058-.213973.882412-.2616486.318477-.023838.648188 0 .976776-.071514.63527.071514 1.306487.071514 1.954114 0 .200522.1311081.459461.011919.682451.047676.340945-.094784.63527.083432.964981-.047676.317353.1430271.212879.5232973.247704.7962973.04718.4046757-.03483.7616757.01123 1.1300271l.09436.060162c.376892.02327.83523-.143027 1.070577.2372433.05842.2258919.07077.5238648-.01123.7372702-.200523.5232973-.776815.1186217-1.11776.3331622-.153903.475054-.02471.8678108-.05954 1.3547838.07133.2866216-.235347.7735946.153903.8564594.375769.023838.893646-.1543783 1.093045.3212433.08313.1668649.0719.4404324-.03426.5948108-.223552.3927568-.765019.213973-1.130679.2622162-.188727.082297-.104474.3087577-.129188.4512157.05954.523297.05954 1.153298.05954 1.652757l-.141545.10727-4.130094.01192-.659984.09478c-.142107.178216-.293763.392756-.470695.48754-.388127.09535-.634708-.237243-.823435-.499459l-.152218-.05903c-.612802-.03576-1.26099.09535-1.872107-.04768l-.435308.08343-2.401218-.01192c-.140984-.04768-.140984-.213973-.153341-.344514.04718-.547135.01236-1.129459.02472-1.701-.165137-.2497291-.506643-.03576-.789172-.0947835-.164013-.011919-.32915-.1305406-.376332-.2854865-.04718-.3212433-.0938-.7735946.222429-.9637298l.836351-.0357418c.224113-.2014865-.035387-.4750541.106721-.7372703-.131435-.4631351.022467-.903-.024715-1.3911081-.046058-.1418919-.187603-.1543784-.293763-.2014865-.116831-.011919-.258938 0-.353302.094784-.22299-.059027-.516753-.071514-.57573-.3564324-.0601-.2258919-.153341-.5113784-.03651-.7497568.118516-.273.425198-.1191892.624598-.2128378.200522-.060162.494285.070946.588649-.1555135.128065-.5584865-.200523-1.2134595.117954-1.7361892.152218-.02327.317354-.011919.446543.047676.423513-.035757.871178-.059595 1.270539-.023838.519-.071514 1.047548.023838 1.541834-.095351.235347.035757.470133-.02327.718961-.011919.129188.1191892.339821.035757.493162.060162" fill="#231f20" fill-rule="nonzero"/><path d="m24.213821 3.1902973c.353864.082865.647627.1782162.988572.273.329711 0 .565058-.213973.882412-.2616486.318477-.023838.648188 0 .976776-.071514.63527.071514 1.306487.071514 1.954114 0 .200522.1311081.459461.011919.682451.047676.340945-.094784.63527.083432.964981-.047676.317353.1430271.212879.5232973.247704.7962973.04718.4046757-.03483.7616757.01123 1.1300271l.09436.060162c.376892.02327.83523-.143027 1.070577.2372433.05842.2258919.07077.5238648-.01123.7372702-.200523.5232973-.776815.1186217-1.11776.3331622-.153903.475054-.02471.8678108-.05954 1.3547838.07133.2866216-.235347.7735946.153903.8564594.375769.023838.893646-.1543783 1.093045.3212433.08313.1668649.0719.4404324-.03426.5948108-.223552.3927568-.765019.213973-1.130679.2622162-.188727.082297-.104474.3087577-.129188.4512157.05954.523297.05954 1.153298.05954 1.652757l-.141545.10727-4.130094.01192-.659984.09478c-.142107.178216-.293763.392756-.470695.48754-.388127.09535-.634708-.237243-.823435-.499459l-.152218-.05903c-.612802-.03576-1.26099.09535-1.872107-.04768l-.435308.08343-2.401218-.01192c-.140984-.04768-.140984-.213973-.153341-.344514.04718-.547135.01236-1.129459.02472-1.701-.165137-.2497291-.506643-.03576-.789172-.0947835-.164013-.011919-.32915-.1305406-.376332-.2854865-.04718-.3212433-.0938-.7735946.222429-.9637298l.836351-.0357418c.224113-.2014865-.035387-.4750541.106721-.7372703-.131435-.4631351.022467-.903-.024715-1.3911081-.046058-.1418919-.187603-.1543784-.293763-.2014865-.116831-.011919-.258938 0-.353302.094784-.22299-.059027-.516753-.071514-.57573-.3564324-.0601-.2258919-.153341-.5113784-.03651-.7497568.118516-.273.425198-.1191892.624598-.2128378.200522-.060162.494285.070946.588649-.1555135.128065-.5584865-.200523-1.2134595.117954-1.7361892.152218-.02327.317354-.011919.446543.047676.423513-.035757.871178-.059595 1.270539-.023838.519-.071514 1.047548.023838 1.541834-.095351.235347.035757.470133-.02327.718961-.011919.129188.1191892.339821.035757.493162.060162" stroke="#231f20" stroke-width=".5"/><g fill-rule="nonzero"><path d="m30.451932 3.6295946.07077 1.6533243c.1994.3802703.68189.1305406 1.035192.2145406.09436.011351.212318.082297.212318.189 0 .1191891-.02528.2854864-.165136.2854864-.247705-.035189-.48249.059595-.694247.024405-.153902.011351-.342068.035189-.388127.2014865-.05954.868946.01123 1.771946 0 2.6403244l.210634.1543783.918922-.023838c.09268.023838.164574.143027.211756.2264595-.01236.1299729-.0938.2497297-.211756.2854864-.388127-.011919-.895331-.1901351-1.129556.2020541l-.03595.2849189c.02359.512513.02359 1.034108-.01123 1.570459-.03595.178216-.271296.130541-.424637.154946-.222428-.05959-.446542.05903-.647626-.02441-.328588.04768-.658299.142459-.964419.02441-.729072-.05959-1.553068.07038-2.259672 0-.05842-.02441-.07077-.107838-.03483-.167432.270172-.14246.565059-.02327.882412-.05959 1.035192-.02327 2.035559-.01135 3.02413-.02327.176932-.07095.188166-.24973.200523-.416027.05785-.975649.07021-1.891135.03483-2.8667837-.01517-.1242973.02303-.1651621 0-.2610811-.129189-.8558919.08257-1.7481081-.02247-2.5926486-.117954-.4875406.188166-.987-.153902-1.3797568-.08201-.1067027-.258939-.1662973-.211757-.3081892.140984-.143027.423513-.095919.553825.011351" fill="#fff"/><path d="m28.72137 3.5705676c.129188.011919.281968-.012487.340945.118054-.105036.4642703.106721.927973-.02359 1.3564865.07077.2491622-.04718.5346487.04718.773027-.07021.8553244.02359 1.6646757.03595 2.460973-.08313.570973.03483 1.2128919 0 1.7600269-.01236.09535-.08313.166865-.188166.154379-.365659.02327-.671779-.106703-1.012724 0-.165136-.08286-.376893-.01135-.553263 0-.587526-.08286-1.153146.02327-1.694613.131108-.08257 0-.117393-.084-.12975-.14246-.01123-.7849458.09436-1.6646755.01236-2.4377025.08201-.5357838-.0938-1.0227568-.01236-1.5466217-.06965-.7128648.01236-1.4858919-.01123-2.2237297.153341-.273.506643-.3558649.823997-.3683513.600444-.070378 1.165503.082865 1.741795-.035189h.623474m-3.731295.3797027c.08313.2735675-.01067.5232973.05954.7968648-.02359.7264865.117954 1.4268649.04718 2.142.02359 1.1283244 0 2.3537027.03595 3.4950807-.09436.09592-.211756 0-.30612-.03632-.306681.0244-.576854-.131108-.895331-.141892-.552701.04654-1.152584-.07151-1.694613.04654-.235348-.141892-.706043.21454-.706043-.2616489.02303-.1657297.02303-.3201081-.04718-.4744865.0118-.2258919.08313-.4642703.03539-.6782432l-.0118-4.7806217c-.02359-.1311081-.02359-.2497297.0118-.3802702l.117955-.059027c.835792.047108 1.80021-.035757 2.682623.011351.235909.071514.530795.071514.670656.3206757" fill="#fff"/><path d="m20.812799 3.6886216c-.105598.2854865-.435309.3456487-.517315.6305676.02359.8797297.02359 1.8315405.05842 2.7112703l-.03482.2974054c-.01236.4404324.09324.9154864.01123 1.344.05954.094784-.02359.2026216 0 .3087567.03595.7730271 0 1.5460544.03595 2.3310004.05842.118621.176371.226459.317354.202054.553825-.130541 1.212124.0244 1.741796-.141892l.422951.07095 1.624964-.02441c.05954.03632.106159.07208.152218.119757-.05785.296838-.447104.142459-.659422.190135-.480805-.03519-.987448-.01192-1.446909.01192-.565059-.143027-1.164942.154379-1.694614-.03689-.22299-.01022-.588649.107838-.68189-.177648-.164574-.439865.09324-.903568-.07133-1.355919 0-.2134057.03539-.4988922-.212318-.6055949l-.893658-.01249c-.106721-.0595941-.164575-.1543779-.152218-.285486-.03595-.095351.09324-.1782162.175809-.2020541.342068-.059595.882412.1311082 1.059906-.2383783 0-.8558919.08201-1.746973-.01236-2.6278379-.283652-.475054-.835792.060162-1.188532-.2974054-.04718-.082297-.03483-.2139729.02359-.2962702l.0938-.1067027c.329711-.023838.61224-.060162.929594-.071514l.141545-.1674324.03483-1.4387838c.02359-.2491621.30612-.1311081.459461-.2014865.09436.023838.212318 0 .281968.070378m9.026893.5477027c.05842 1.7237027.01123 3.6029189.08313 5.3277568-.0719.332027.03483.7480537-.03595 1.0698647l-.05842.04768-.294887-.380838c-.07077-.4046757.04718-.7605406.01123-1.1890541.01236-1.7004324-.04718-3.5319729-.04718-5.196081.05954-.095919.130312 0 .188728.034622l.153341.286054" fill="#fff"/><path d="m21.071737 4.2601622c.07077.8326216.03483 1.7475405.08201 2.5926486-.03482 1.1288919 0 2.2350811-.02247 3.3407032.02247.250297-.165136.463702-.318477.570405-.129189-.391622-.04718-.7838109-.06965-1.2123244.03483-.4279459-.05954-.8320541-.02471-1.2486486-.08201-.071514.02471-.1430271.01236-.213973-.04718-1.1061892.04718-2.2833244-.02359-3.4127838.01123-.2253243.04718-.4398649.258939-.5471352.08313-.011919.130311.071514.105597.1311082" fill="#fff"/><path d="m24.272237 5.4974595c.188727.273.247705.7122973.07077.9983513-.140984.2968378-.411718.5828919-.729072.63-.142107.095351 0 .213973.05842.297973.318477.2849189.506081.6776757.882974.8910811 0 .1895675-.212318.1549459-.341507.2026216-.222991-.0244054-.458338-.1078379-.58865-.3218108-.175808-.3564325-.540344-.5352162-.729633-.8916487-.06965-.023838-.104474.023838-.140422.071514.03595.3212433-.09436.7611082.152779.998919-.164013.2497297-.529672.059027-.78861.095351-.129189-.143027.05898-.2502973.04718-.4041081.0118-.7735946-.01236-1.5574054-.02415-2.3554054.083129-.212838-.470696-.4273786-.070212-.5232975.683013-.05846 1.364902-.2134054 1.977143.084zm3.249367-.2264595c.07021.1186216-.09436.1662973-.106721.2610811-.152217.2974054.04718.6186486-.02303.9154865.02303.5828919-.117393 1.1896216.02303 1.7248378.04718.1305406.294886.1186216.223552.2974054l-.08201.059595c-.352175-.0482436-.741425.0465402-1.058779-.0834328-.106721-.1668649.17637-.2502973.17637-.4165946.0118-.5704054-.03482-1.200973 0-1.7713784.08144-.1782162-.03482-.3212432-.0118-.5232973.09324-.213973-.412841-.500027.02359-.570973.294324.059595.588649-.047108.835792.1072703" fill="#231f20"/><path d="m23.543166 5.5207297c.201084.1067027.293763.3212433.306681.5346487-.02359.3575675-.177493.6901621-.494285.8564594-.153903.047676-.317916.1072703-.495409.059027-.105036-.1782163-.0938-.427946-.105036-.63-.03595-.2854865.03595-.5227298.04718-.8087838.117954-.1662973.352178-.1061352.52911-.1061352.04718.059027.129188.082865.211757.094784m5.990405 5.3266212c0 .07208.07077.11919.02359.190703-.553824.178784-1.118321-.04711-1.694613.02384-.634708 0-1.212685.08343-1.823802.04711-.106721-.04711-.211757-.177649-.224114-.308189 0-.107271.0938-.143595.188166-.143595.977337-.118054 2.059149-.07038 3.059516-.106703.223552-.02384.366221.143027.471256.296838m-5.272006-.225324c.188165.03519.376331.0823.494286.24973.01123.09478-.07077.202054-.165137.213973-.399922.01249-.823997-.09478-1.188532.02327-.752663.02384-1.37726-.09478-2.129922-.01078-.04662-.01249-.106159-.02441-.12975-.07151-.01123-.190703.211756-.322379.35274-.392757.38925.08286.694808-.142459 1.071701-.02327l1.694614.01135m1.400292.570963c.02359.38027.05841.855324-.282529 1.071-.140984-.01305-.293763-.06016-.353302-.215676-.08257-.345081-.07077-.807648.152779-1.105054.235347-.297405.342068.14246.483052.24973m-22.2394871-7.5282162h.0005617l-.6594221-.0017c.00562 0 .00786.00227.00786.00681 0 .018162-.041565.06754-.04999.1061351.00786.1356487.041003.6748379.041003.6748379 0 .00397.011234.5868648.011234.5868648l-.0269577.1430252c-.1600811.3371351-.4897922.3212432-.64875.3144324 0 0-.063471.00114-.1033506.00227-.011796.1021621-.054484.429081-.054484.429081s.014042.1367838.020783.2173784c.044373.014189.1011039.031784.1011039.031784.00506.00114.1724383.022703.1724383.022703.021344.00511.3785779.1067027.3785779.1067027.1583961.04427.1600812.192973.1600812.2497297.0005617.024405.011795.3218108.011795.3218108 0 .00114.012357.3995676.012357.4012703 0-.00908.020221.058459.020221.058459-.0005617-.00114-.0005617-.00114-.0005617-.00114 0 .00795.069649.2537027.069649.2537027l-.041003.133946c0 .021-.011234.9137838-.011234.9137838 0 .0005675-.066841.185027-.066841.185027-.1690682.2071622-.4066623.2207838-.5633734.2287297h.00169c0 .0017-.0865.021568-.1505325.03746-.067964.089676-.1443539.2344054-.1443539.4080811l.041003.2082973c.033701.075487.1612045.094216.4156493.1032973l.2437687.0715181c.1623279.1384869.2420876.3456489.2420876.6322699l-.017974.283784c0 .0011-.013481.189568-.013481.189568 0-.0074.020221.48527.020221.48527-.00112.02157-.0073.215676-.0073.215676s.047182.169702.070211.252c.1825488-.000568 1.5266689-.0062 1.5266689-.0062l1.488474-.01589c.2960097.05959.545961.03519.8099545.0091.012357 0 .7964741-.0079.7964741-.0079.047744.0068.4437337.267892.4437337.267892l.2797208.192405c-.00112-.0057.012919-.000568.1533409-.151541.1404221-.152108.3510552-.381405.6987403-.331459-.042688-.0057-.085377.0068-.1168312.03405-.01011.0085-.00955.0227-.015727.03349.1078441-.06981.5779772-.07322 2.7000354-.08854.0011 0 1.342997.0045 1.689559.0062.0034-.162324.01573-.740675.01573-.740675 0-.000568.02865-1.027865.02865-1.027865 0-.000568.08088-.1850274.08088-.1850274.246576-.2594454.561683-.2390129.791413-.2236886.216812.013622.29264.00795.350494-.051081.05842-.1265675.09492-.3887838.01685-.5221621-.03033-.077757-.07864-.080027-.08762-.080027-.0095-.0017-.394867.00795-.394867.00795-.0095 0-.301627-.00965-.301627-.00965-.0011 0-.184233-.048243-.184233-.048243-.290955-.1952433-.271296-.4892433-.260062-.6646216 0 .018162-.0146-.2224865-.0146-.2224865.0011.011919-.0067-.084-.0067-.084 0 .00114-.0118-.6430541-.0118-.6430541l-.01292-.6589459c.09605-.6141081.611116-.6055946.858821-.6010541.12975.00227.276351.00454.321847-.044838.102228-.1242973.09493-.3836757.0264-.5607568-.05392-.065838-.347124-.04427-.583594-.026676-.0022.0005676-.199961.013054-.199961.013054l-.220744-.086838-.08313-.083433-.08482-.1907027-.01236-1.1799729c0 .00341 0 .00511 0 .00454 0-.00908-.0191-.1997838-.0191-.1997838 0-.00624-.03033-.1288378-.04325-.1861621-.110653.00908-.50215.038027-.50215.038027-.04887.00568-1.336818-.042568-1.336818-.042568-.30275.096486-.692562.064135-1.068331.032919l-.286491-.0215685c-.5010261-.0198649-.9531852.038027-1.5182436.1384865-.015727.00227-.207263.050513-.207263.050513-.1016656.048243-.30275.1407567-.5571948.059027-.3224091-.1850265-.6869448-.1980806-1.0728247-.2111346-.0061786-.0005676-.6605454-.0493784-.6605454-.0493784-.8694935.0987567-1.7569611.0930811-2.6966656.0874054zm9.9177301-.082865c.0079.00227.02472-.0017.0601-.00397 0 0-.04943.00341-.0601.00397zm-11.3444184 1.9087298c.00112-.0017.01011 0 .01011-.00227 0-.00681-.00337-.017595-.00337-.03746 0-.00681.0005617-.014189.00225-.02327 0 0-.00674.048243-.00899.063z" fill="#fff"/><path d="m7.941711 3.5546757c.2589384.0834324.4122793-.143027.6234741-.1191892.5291104-.0947838 1.0239578-.1657297 1.5895779-.1424595.435308.024405.906003.1072703 1.351984-.011351.411717.035757.87174.059027 1.272224.047676.22299-.059595.470133-.047676.717837-.047676.222991.1662973.140984.4517838.188166.6895946-.02359.3802702-.03595.7724594.01236 1.1532973l.08201.084c.353302-.012487.847026-.1191892 1.070578.2014864.105597.2741352.105597.641919-.08257.8683784-.30612.3445135-1.0116-.1186216-1.105964.4637027-.05954.4398649.09436.8445406.02359 1.3082433.09436.2491621-.0938.5340811.152779.7020811.258939-.048243.481929.082297.717838 0 .140984 0 .294325.082297.340945.2247567.153341.2622162.07133.6430541-.05842.8808649-.318477.3325946-.835792-.048243-1.140789.2735676-.07133.642486.01123 1.296324-.04831 1.938243l-.164575.106135c-1.482857.0244-2.953357-.05903-4.4249802.01249-.4111559-.06016-.5055195.60673-.9413896.451784-.2347857-.08286-.3768929-.310459-.6116786-.428513-.5291104-.08343-1.0593442.118054-1.5890162 0-1.0700163-.03576-2.1181267.084-3.2128572.02384-.2943246-.345081-.082568-.843973-.1763701-1.260568 0-.24973.1173929-.677676-.1061591-.867243-.2707338-.01249-.6122403 0-.7408669-.2854864-.1415404-.333736-.0353814-.7253576.1763751-.9756549.1887273-.1657297.5178767-.0119189.6824514-.2145406l.0117954-.9506756c.1291883-.1424595-.0943636-.2610811-.0471818-.427946.0353864-.2616486-.0584156-.4404324-.0235909-.6901622-.1173929-.0947837-.3173539-.0471081-.4706948-.0947837-.12975-.0232703-.2583767-.0715135-.3291494-.1901352-.0707727-.3206756-.0235909-.6782432.0707727-.987.1999611-.2264594.5886494.0595946.7290715-.2383784-.0589773-.4398648.0471818-.891081-.0471818-1.3439999.0353863-.1543784.1769318-.2974054.329711-.3445136 1.176737 0 2.2596721.035757 3.3892273-.082865.6122402.095351 1.2946915-.024405 1.7889772.273" fill="#231f20"/></g><path d="m7.941711 3.5546757c.2589384.0834324.4122793-.143027.6234741-.1191892.5291104-.0947838 1.0239578-.1657297 1.5895779-.1424595.435308.024405.906003.1072703 1.351984-.011351.411717.035757.87174.059027 1.272224.047676.22299-.059595.470133-.047676.717837-.047676.222991.1662973.140984.4517838.188166.6895946-.02359.3802702-.03595.7724594.01236 1.1532973l.08201.084c.353302-.012487.847026-.1191892 1.070578.2014864.105597.2741352.105597.641919-.08257.8683784-.30612.3445135-1.0116-.1186216-1.105964.4637027-.05954.4398649.09436.8445406.02359 1.3082433.09436.2491621-.0938.5340811.152779.7020811.258939-.048243.481929.082297.717838 0 .140984 0 .294325.082297.340945.2247567.153341.2622162.07133.6430541-.05842.8808649-.318477.3325946-.835792-.048243-1.140789.2735676-.07133.642486.01123 1.296324-.04831 1.938243l-.164575.106135c-1.482857.0244-2.953357-.05903-4.4249802.01249-.4111559-.06016-.5055195.60673-.9413896.451784-.2347857-.08286-.3768929-.310459-.6116786-.428513-.5291104-.08343-1.0593442.118054-1.5890162 0-1.0700163-.03576-2.1181267.084-3.2128572.02384-.2943246-.345081-.082568-.843973-.1763701-1.260568 0-.24973.1173929-.677676-.1061591-.867243-.2707338-.01249-.6122403 0-.7408669-.2854864-.1415404-.333736-.0353814-.7253576.1763751-.9756549.1887273-.1657297.5178767-.0119189.6824514-.2145406l.0117954-.9506756c.1291883-.1424595-.0943636-.2610811-.0471818-.427946.0353864-.2616486-.0584156-.4404324-.0235909-.6901622-.1173929-.0947837-.3173539-.0471081-.4706948-.0947837-.12975-.0232703-.2583767-.0715135-.3291494-.1901352-.0707727-.3206756-.0235909-.6782432.0707727-.987.1999611-.2264594.5886494.0595946.7290715-.2383784-.0589773-.4398648.0471818-.891081-.0471818-1.3439999.0353863-.1543784.1769318-.2974054.329711-.3445136 1.176737 0 2.2596721.035757 3.3892273-.082865.6122402.095351 1.2946915-.024405 1.7889772.273" stroke="#231f20" stroke-width=".5"/><path d="m11.872968 3.9003243c.03426.5465676-.08313 1.0817838.0455 1.6050811-.03482.9035676-.0455 1.9019189-.02247 2.8304595-.03539.6061621.08201 1.2123243.02247 1.8309731l-.128626.09592c-1.035754.105567-2.3186497-.262216-3.2482438.272432-.070773.01192-.1522176-.01135-.1522176-.0823-.035386-.4642704.070211-.9518109-.047182-1.355919.1055974-.5596216.047182-1.141946 0-1.6896487.070211-1.1288919-.024714-2.2112432.023591-3.3531892.3409448-.3206756.8824123-.273 1.3300779-.3087567.5998835-.047676 1.2469485.047108 1.8108835-.094784.16626 0 .376893.047108.366221.2497297" fill="#fff" fill-rule="nonzero"/><path d="m13.237308 3.8401622c.07077.559054-.04718 1.1419459.129189 1.6527567.330834.2026216.742552-.02327 1.107087.084.128627.0828649.105598.2610811.058416.3564324l-.117954.1186217c-.352179.059595-.858822-.1424595-1.082374.2264594-.01123.914919-.02359 1.7481081-.02359 2.6874325.04718.082865.08201.2014865.188727.2134054.317354-.071514.612241-.094784.940828-.082297.117955.094784.200523.2497297.105598.3802702-.304997.3558649-.811078.023838-1.187971.2258919l-.05842.1424595c-.04774.5948101-.01236 1.2248101-.02471 1.8315401-.128626.166865-.387565.09592-.563935.106703-.258938-.09478-.494286.154378-.752662 0-.624598-.02327-1.235715.106703-1.800773.06016l-1.1542695-.06016c-.058416-.02327-.070773-.09478-.034825-.154379.3881267-.250297.8947695.084 1.3064875-.165729.283091.05846.647065.129973.917237 0 .306682-.09535.471256.237243.753786.05846.305558.131108.647626 0 .964418-.02327l.141546-.238379c-.01236-1.057378.01123-2.1051073.02359-3.0921073-.02359-.903-.02359-1.89-.05954-2.8054865.05954-.3694877.012358-.7616769-.011233-1.1419472l-.411156-.4285135c.07021-.1657297.352179-.070946.529111-.083432l.117392.1311081m-5.3776035.143027c.1055974 1.6652432.023591 3.4598919.069649 5.0893784l.048305.1191892c-.0123566.4517833-.0483046.9274048.0224681 1.3678378-.1993993.094783-.3634123-.154946-.5762922-.166865-.5173149.011919-1.0351915-.261081-1.5648636-.10727-.3656591-.107271-.7537857.035756-1.1306786-.01192l-.1173928-.106702c.035948-1.7713785-.1055975-3.6505948-.0348247-5.4231083-.059539-.2491621-.0359481-.5817567-.0359481-.8434054l.1067208-.1078378c.9408279.059595 1.7884156-.023838 2.7185714-.070946.1881656.023838.4004838.082865.4942857.2616487" fill="#fff" fill-rule="nonzero"/><path d="m3.7054578 3.8520811c-.0825682.2979729-.5066429.4285135-.4353084.7962973.04662 1.1419459.082006 2.2958108.04662 3.4491081.070773.4046757-.023591.8201351.023029 1.2492162-.1061591.1782162.035948.332027-.011234.5113784.035948.5346489.035948 1.0329729.058977 1.5698919.082006.285487.4117175.190135.6352695.190135.7183993-.03689 1.4828571.01135 2.1771039-.04824.4128409.04824.9060032-.02384 1.2941298.09535 0 .04824 0 .131108-.070211.154946-.9060032.08286-1.7653864-.04711-2.6955422 0l-1.611483-.011921-.1179545-.119189-.0466201-1.8667297c-.2477046-.3689189-1.0947306.1901357-.9762143-.5113783.234224-.3337298.7403052.0715135.9762143-.3093244.0235909-.8689459-.0471819-1.7838648-.0589773-2.7351081-.0353864-.0834324-.1061591-.1424595-.1887273-.1662973-.199961.1067027-.3527402-.0953513-.553263-.0351892-.1050357-.0601621-.1409837-.1912702-.1173928-.3104594.2005227-.273.7296331.0482432.8475876-.3916217l.0348247-1.4268648c.1527792-.2145406.5066429-.1072703.7537857-.1435946l.035386.059595m8.9319676 1.2844054c.05954 1.7361892-.02303 3.5314054.08201 5.2085671-.09436.131108.04718.392757-.1994.404108-.09436 0-.03595-.141892-.105597-.189567l-.130312-.178784c.117955-1.1175403.01236-2.1402971.02359-3.282243-.07021-.4165946.01236-.784946-.01123-1.2128919.01123-.486973-.01236-.9745135-.04774-1.4745406 0-.094784.0118-.2258919.09492-.2974054.493724.084.211195.6782433.293763 1.0227568" fill="#fff" fill-rule="nonzero"/><path d="m4.1053799 4.6375946c-.011795.486973.082568.9983513.023029 1.4864594.035948.5352163.012919 1.0817838.047744 1.617-.070773.5108109.011795 1.0585136-.011795 1.5454865.069649.2264595-.094925.5232973.023591.7616755 0 .273-.023591.606162-.2825292.761108-.058416.01078-.1061591-.02497-.12975-.07151.0353855-2.1056789-.1055983-4.1619762-.0353872-6.2432464.0471818-.0834325.1179545-.2258919.2359091-.2378108.2117564.0238378.0707727.2497297.1291883.3808378" fill="#fff" fill-rule="nonzero"/><path d="m7.5771753 5.3147027c.0123572.1907027-.2117565.1907027-.2948863.3337297-.4117176.8678108-.6229124 1.8184865-.9644189 2.6993514-.0584156.059027-.1409837.129973-.2465811.1067027-.4004838-.3325946-.2595-.8916487-.5543864-1.2611351-.1168312-.427946-.3409448-.7962973-.4240747-1.2355946-.0466201-.2502973-.3049967-.3808379-.3645357-.5948109.0943636-.0953513.2842143-.0357567.4128409-.0482432.1763701-.0107838.4465422-.0828649.5409059.1078378-.1763702.4041081.2005227.7128649.2353474 1.1056217.0943636.2735675.1763701.5942432.3881266.7968648h.047182c.1651362-.6657567.5886492-1.2963243.4358699-2.0335946.1763702-.1668648.5409059-.1668648.7650195-.0476756l.023591.070946m3.1651136.2145405c.0118.1191892.09436.2253244.04662.3564325-.03482.143027-.187042.083432-.270172.047676-.140984-.1543788-.293763-.3087572-.469571-.4279464-.1426692.0476757-.3780166-.0124865-.4128413.1901351.034825.3694865-.070773.7367027.047182 1.0698649.094364.095919.2229903.060162.3409443.023838.130312-.094784.164575-.2968378.342069-.2968378.105597.2610811.0938.5584865.01123.843973-.246581.095351-.376893-.427946-.6706554-.1662973l-.070773.095351.034825.9393244c.1067207.202054.3533014.071514.5307954.083432.316792-.023838.458337-.3689189.52911-.6186487.03482-.011919.07021-.047676.129188-.035757.188166.2026216.07021.4881081.08257.7247838-.05954.2026216-.271296.1549459-.411718.2026216l-.5650563-.0113506c-.4004837 0-.8947695.071514-1.2941299 0-.0707727-.0363243-.0595389-.143027-.0235909-.1912702.3757695-.0107838.2701721-.4273784.3757695-.6651892-.0460584-.6424865.0943637-1.4035946-.0696493-2.0211081-.0718961-.1311081-.3184773-.1555135-.2712955-.3212433.353302-.1549459.7414286-.0363243 1.1289935-.0834324.3190389.1549459.9419509-.4041081.9301559.2616486" fill="#231f20" fill-rule="nonzero"/><path d="m12.248737 10.832595c.08257.04767.142107.166865.118516.286054l-.118516.05959c-.670094.0823-1.341873-.03689-2.023763.03462-.4128409.02384-.8588214-.03462-1.2593052 0-.1415454.01192-.2712954-.07151-.329711-.189568-.058977-.166865.12975-.190702.2117565-.238946.8818506-.213973 1.8597497-.09422 2.7893437-.154378.211195-.09478.493725.0244.611679.202622m-4.4828344.131108c.069649.142459-.095487.225892-.1887273.249162-1.0003669.07151-1.9187273-.05846-2.9190941 0-.1415455-.02327-.3521786.02384-.4701332-.09422.058416-.167433.2111949-.298541.3521786-.380838.5420292-.02327 1.0947305-.167433 1.6367598-.03519.5291103-.04824 1.1413506-.01249 1.5890162.261081m.7644578.701513c-.035386.213973.058977.535216-.2128799.594811-.1050357.03576-.234224.01135-.3173539-.04824-.1404221-.202054-.1291883-.462568-.1291883-.712865.070773-.142459.1539026-.309324.3184773-.38027.2471428.0227.2814058.345081.3409448.546567m10.4075226 14.868576c-.01629.0085-.0095.0091-.02696.0096 0 0-.654929.02781-.659984.02781-.0022.0034-.424074.108973-.424074.108973-.232539.03576-.421828.0647-.539783.183892-.07864.07946-.180302.10727-.280282.07776l-.617857-.181622s-.669533-.194675-.672341-.195243c-.208948.02043-.622351.02384-1.449156.03235-.0022 0-2.120374-.01532-2.120374-.01532-.347123-.01078-.53248.01249-.603253.150973.02134.182189.03202.548838.05111 1.365 0 .0074-.05785.185595-.05785.185595l-.106721.141892c0 .000567-.221305.119756-.221305.119756-.000562 0-.138175.01192-.138175.01192-.02022.000568-.303874-.01646-.364536-.021-.01966.0079-.04213.0176-.05504.02213.01292-.0051-.09717.01078-.176371.021 0 .0017-.07583.157784-.07751.161189.0011.000568.0011.0023.0011.0068 0 .02554-.0084.130541-.0084.130541 0 .14927.05392.25427.133121.352459.06965 0 .154464.0074.267925.01646.188727-.0091.435308-.01986.658299.111243.08931.05278.145477.152108.145477.25654v2.034163l-.09099.21454c-.207824.200919-.470695.214541-.681889.224757-.195468.01078-.283653.02327-.324656.07662-.04494.155513-.08369.296837-.009.436459.03763.04484.167945.05676.420704.05449.0079.0017.37577.01873.37577.01873.100542.0051.178055.05789.229169.156081.119078.22646.134243.447811.134243.615811l-.0079.237811c0 .01816.01236.50854.01236.50854l-.03314.420001c-.0017.01192-.03145.259945-.03145.259945 0 .05903.02247.07435.0455.09422.142669-.01646.389812-.02384.879043-.03633l.894769-.03405c.346.09308.599883.05903.893646.01987.01067-.000567.694809-.04313.694809-.04313.04381.0034.349931.05449.349931.05449.0011 0 .303874.03235.303874.03235.0034 0 .0034.0051.0056.0057.22973-.09195.480805-.07378.680766-.02611l.100542.02327.190412.137919c.07021.122027.223552.318405.440364.383675.04269-.02327.116269-.06073.140984-.07435.02528-.04711.04493-.08116.06122-.108973.0034-.03689.0084-.07946.0084-.07946.156711-.299109.449351-.307622.624598-.312163-.0062.000568.139298-.01078.139298-.01078.0011 0 .251637-.01192.251637-.01192.205016-.01192.474065-.01362.713905.08173-.05729-.01078.107283-.01419.107283-.01419.0146.0011.09212.0028.09212.0028-.02247-.000568-.04493.03065-.06403.03973l.216812-.09933.277474-.021c.01123 0 .491477.000567.491477.000567-.0084 0-.0084.01192-.01404.01305.08313-.0051.216812.0028.47912.02668.0051.000567.331396.03973.33252.03973.0011-.0028.496532-.05903.496532-.05903.42913.0051.462831-.03519.488669-.123729-.0056-.105-.0062-.313298-.0073-.819568l.0011-.887675.06628-.202055.105597-.13054.197714-.10727c.0022 0 .700426-.06811.724017-.06981.0028-.0091.05392-.112946.05392-.112946.0034-.0051.02191-.04313.03988-.07832-.01404-.04143-.03258-.09024-.03258-.09024s.01853-.136216.02022-.152675c-.009-.01305-.02022-.02781-.02247-.03405-.02415-.05846-.08987-.08003-.318477-.103298l-.187043.01135c-.125818.02611-.454405.09365-.62572-.230433 0-.0023-.0337-.137351-.0337-.137351 0-.000568-.01236-1.998406-.01236-1.998406-.0011-.103864.05111-.198081.139299-.253702l.09324-.05903c.0011 0 .17637-.04484.17637-.04484.404416.03008.64538-.042.753224-.120325.0084-.02384.01011-.04597.02078-.07038.0051-.0062.0073-.01589.0073-.01589 0-.01135 0-.0227 0-.03349 0-.248595-.0095-.390487-.107844-.509108-.03707-.01135-.247143-.0091-.400484-.0074-.0039 0-.272981-.0062-.272981-.0062l-.140422-.0437c-.298256-.188432-.275789-.510243-.262308-.703216 0 .0028.0062-.126.0062-.126l-.009-.614676c0-.0023-.0022-.25881-.0022-.395594-.08594-.07378-.248828-.08457-.515069-.05903-.0073 0-.383071.01589-.383071.01589s-.140422-.05165-.16963-.063c-.08706.0068-.610555.0454-.610555.0454-.0022 0-.546523.03008-.546523.03008-.05167-.0017-.345438-.04427-.345438-.04427-.158396-.03519-.277474-.06016-.373523-.01816" fill="#fff" fill-rule="nonzero"/><path d="m19.633253 26.297108c.423513-.04824.846464-.01192 1.270539-.08343l.08257.07151c.376893.02384.94139-.178216 1.189094.178784.02303.439865-.02359.76054.01123 1.176567 0 .213973-.07077.452352.117393.571541.283091.02384.63527-.04768.882974.119189.188727.225325.176932.486973.176932.783811h-.02415c.02415.05903-.04718.178784-.08201.250297-.235348.201487-.659422.225892-.988572.201487l-.0938.05903.01123 1.997838c.106721.202621.353302.02441.542029.06016.222991.02327.493163.03519.599884.284919.152779.119189-.07077.29627.08201.416027-.117954.166297-.117954.428513-.376893.463135l-.729633.07151-.105597.130541c.05898.60673-.05898 1.213459 0 1.796351-.153341.558487-.881851.225325-1.294692.402973-.281406-.01192-.518438-.09365-.811639-.08286-.235348-.05846-.482491.03632-.729634.02441-.0938.10727-.271295.03576-.399922.05903-.23647-.129405-.600444-.05903-.882974-.05903-.188165.03576-.43587-.03519-.541467.166297.03595.131108-.152779.131108-.0938.261649l-.365098.190702c-.318477-.04767-.552701-.297405-.70548-.559621-.224114-.04654-.530234-.153811-.706604 0-.258938.0596-.43587-.09365-.670656-.08286-.565058-.03519-1.047548.190703-1.589016.02441-.647065-.02441-1.24751.107271-1.90637.05903-.388127-.225324-.105597-.689594-.141546-1.03354-.08144-.451784.09436-.868378-.105597-1.248649-.35274-.05903-.788049.08286-1.023958-.225324-.140984-.262784-.05954-.510811.03482-.762243.247704-.320108.765019-.07095 1.036315-.332027v-2.034182c-.282529-.165729-.670656.01192-.965542-.118621-.211195-.213973-.270172-.486973-.235348-.79573.04718-.143027.0938-.356432.282529-.416594.117393.07151.211757-.07095.353302-.03519.140984.05903.306121 0 .459461 0l.105598-.143027-.03539-1.485892c.152217-.344513.541467-.344513.894207-.333729 1.176737.09592 2.459633-.03576 3.648728 0 .435308.08343.834107.273567 1.270538.368351.306121-.308757.788611-.213973 1.165504-.379703l.576292-.01249c.270172-.119189.541467.02327.812201.03519" fill="#231f20" fill-rule="nonzero"/><path d="m19.633253 26.297108c.423513-.04824.846464-.01192 1.270539-.08343l.08257.07151c.376893.02384.94139-.178216 1.189094.178784.02303.439865-.02359.76054.01123 1.176567 0 .213973-.07077.452352.117393.571541.283091.02384.63527-.04768.882974.119189.188727.225325.176932.486973.176932.783811h-.02415c.02415.05903-.04718.178784-.08201.250297-.235348.201487-.659422.225892-.988572.201487l-.0938.05903.01123 1.997838c.106721.202621.353302.02441.542029.06016.222991.02327.493163.03519.599884.284919.152779.119189-.07077.29627.08201.416027-.117954.166297-.117954.428513-.376893.463135l-.729633.07151-.105597.130541c.05898.60673-.05898 1.213459 0 1.796351-.153341.558487-.881851.225325-1.294692.402973-.281406-.01192-.518438-.09365-.811639-.08286-.235348-.05846-.482491.03632-.729634.02441-.0938.10727-.271295.03576-.399922.05903-.23647-.129405-.600444-.05903-.882974-.05903-.188165.03576-.43587-.03519-.541467.166297.03595.131108-.152779.131108-.0938.261649l-.365098.190702c-.318477-.04767-.552701-.297405-.70548-.559621-.224114-.04654-.530234-.153811-.706604 0-.258938.0596-.43587-.09365-.670656-.08286-.565058-.03519-1.047548.190703-1.589016.02441-.647065-.02441-1.24751.107271-1.90637.05903-.388127-.225324-.105597-.689594-.141546-1.03354-.08144-.451784.09436-.868378-.105597-1.248649-.35274-.05903-.788049.08286-1.023958-.225324-.140984-.262784-.05954-.510811.03482-.762243.247704-.320108.765019-.07095 1.036315-.332027v-2.034182c-.282529-.165729-.670656.01192-.965542-.118621-.211195-.213973-.270172-.486973-.235348-.79573.04718-.143027.0938-.356432.282529-.416594.117393.07151.211757-.07095.353302-.03519.140984.05903.306121 0 .459461 0l.105598-.143027-.03539-1.485892c.152217-.344513.541467-.344513.894207-.333729 1.176737.09592 2.459633-.03576 3.648728 0 .435308.08343.834107.273567 1.270538.368351.306121-.308757.788611-.213973 1.165504-.379703l.576292-.01249c.270172-.119189.541467.02327.812201.03519" stroke="#231f20" stroke-width=".5"/><path d="m20.362886 26.725622c0 2.199891.116831 4.35154.01123 6.539513-.17637.214541-.470695 0-.70548.07265-.317916.153811-.647065-.04768-.989134.01078-.48249.03632-.963857.084-1.376698.297405-.04718 0-.09436-.05903-.07077-.118622-.04606-.404675.08313-.784946-.05842-1.129459 0-.262216.08201-.488108.07077-.761108-.01236-.238379-.03595-.476189-.04718-.737271-.05954-.131108-.22299-.04767-.329711-.07208l-.05842.07208c-.10672.891082.01123 1.747541.01123 2.591514-.01123.09535.08313.154378.02359.24973-.04718.05903-.188166.05903-.235909 0-.270172-.225892-.658299-.178217-.963857-.308757-.201085.09478-.388688-.04768-.589211-.03632l-1.565426.02384c-.164012-.03519-.152779-.129973-.187603-.273.02359-.344513-.04718-.606729.0118-.95181-.05898-.296838 0-.653838-.03482-.93819.02303-.90527.01067-1.962648-.04718-2.891189.04718-.344513-.02359-.736702 0-1.069865.08201-.225324-.153903-.557918.175808-.653837 1.082373.23781 2.306854-.202054 3.294864.368351.08313.368351-.05954.82127.129188 1.142513.142669-.09649.412841.106703.436432-.10727l-.03595-.867811c.176931-.297405.541467-.321243.836354-.428513.716714-.08287 1.49409-.153811 2.223724-.07095l.07077.04768" fill="#fff" fill-rule="nonzero"/><path d="m21.751942 26.725622c.04662.582891.02303 1.141378.07077 1.712918.293202.357001.835231-.03576 1.116637.333163.03595.165729-.05842.333162-.210634.343378-.28309.09535-.730194-.154378-.918922.154946-.04662.261649 0 .486973.01292.725351-.03595.273.05785.558487-.03595.843406.0118.357567.05898.725919.02303 1.118108.223552.332595.694247.119757 1.035192.178216.0483.08286.188727.09592.119078.214541-.318477.345081-.906003-.02384-1.177299.368919-.04718.343946-.02359.724783-.01179 1.057945-.106159.332595.176932.783811-.175809.998919-.766143.02384-1.5306.01192-2.29562.01192-.458899.07095-1.000928 0-1.4705.02327-.07077 0-.176932-.04824-.165136-.143027l.02415-.07208c1.235715-.118054 2.41189-.0227 3.6594-.07038l.117393-.143027c.141545-.534649-.04718-1.164649.05842-1.712351-.04662-1.795784-.03482-3.638676-.06965-5.411189-.07133-.202055-.271296-.296838-.387565-.474487-.01292-.0596.03482-.119757.105036-.143594.199961.01305.411717-.02214.576854.08514m-9.391991.05959c-.04718.177081-.235347.261649-.317354.414892-.117954.60673.04718 1.212324-.02359 1.771946.03482.523297-.02359 1.118108.09436 1.629486-.05954.451217-.117954.927973-.02359 1.378622l-.05898.214541.05898 2.200459c.140984.345081.599883.178216.870617.200919 1.094169-.0227 2.270906.02497 3.365075.01192.01236.03576.05954.0596.0483.106703-.224114.107838-.506643.333729-.741429.119756-.788048-.02384-1.518243.01192-2.272029 0-.210633-.03519-.458337-.04711-.681889.01192-.271296-.09478-.624598.09478-.860507-.106702-.105036-.416595.04831-.999487-.128626-1.392244.117954-.178216.09436-.463702-.02359-.641918l-.08145-.05903-.859383-.04824c-.07077-.106703-.224676-.224757-.106721-.356432.270734-.201487.61224-.09478.953747-.14246.164574-.119756.128626-.320675.164574-.486973-.08257-.678243.05842-1.486459-.07077-2.199892-.175809-.547702-1.259306.106703-1.130679-.666891.319039-.321244.942513.119189 1.15427-.380838l.02359-1.522217c.02359-.106135.130312-.129972.223552-.15381.140984.01249.330273-.04711.423513.09649" fill="#fff" fill-rule="nonzero"/><path d="m12.854799 27.070135.02303 1.569324c.129188.131676-.02303.286054-.01067.427946.02247 1.487027-.05954 3.056919.01067 4.507622-.128627.08286-.164575.367216-.35274.261649-.141546-.11919-.05842-.297406-.03482-.440433.01067-.332594-.01236-.628865-.02359-.973946-.05954-.477324.07021-.988135-.04831-1.439919l.04831-.118621c-.02359-.903568-.07077-1.974-.04831-2.890054 0-.333163-.06965-.796298.318477-.986433.05842-.0244.117955.03576.117955.08287m8.202334.332595c.08313.891648.01292 1.724838.05954 2.592648-.09436.213973.03482.439298 0 .629433v3.15227c-.03595.04711-.08257.08286-.130312.04711l-.165698-.333162c0-2.116459-.02247-4.257324-.03482-6.361865.200522-.178216.200522.179351.271295.273568" fill="#fff" fill-rule="nonzero"/><path d="m19.997789 28.247838v.642486c-.04718.04711-.09436.14246-.165136.118622-.328588-.08287-.129189-.595946-.540906-.643054-.200523-.01135-.447104.01249-.541468.239513-.106721.129406-.08201.332027-.02415.474487.470694.689594 1.695175 1.010838 1.366026 2.021676-.05954.225891-.269611.391621-.4589.511378-.294886.03519-.611678-.03519-.882974.106703-.164575.04824-.258938-.08287-.399922-.08287-.270734 0-.622912.08287-.835792-.07151.03595-.178216.294886-.321243.141545-.535784-.01236-.141891-.105597-.272432-.211756-.343378-.43587.153811-1.223919-.310459-1.271101.439297-.02359.178217.30612.427946-.01123.511379-.648188-.08343-1.282896.09535-1.88334.01192-.07077-.02441-.05898-.130541-.01236-.167433.117955-.02327.223552-.16573.283091-.271865l-.0118-2.569378c-.08257-.129973-.258938-.08286-.388688-.09422-.258377.02327-.329711.404108-.58865.38027-.07077-.202054.04831-.439297.106159-.654405.09436-.214541.328588-.153811.460023-.04711.587526.08286 1.293007.05903 1.905247-.08287.141545.320675-.188166.570405-.281406.855892-.271295.02384-.01236-.41546-.283653-.451217-.152217-.02497-.317354.04711-.340945.200919-.07077.344514.03595.677676-.04718 1.022757.07077.202622.07077.380838 0 .582324.05954.238946.130311.523865.05954.773595-.01236.118622.07077.237811.187042.273.248266.01192.471256-.10727.600445-.333162.188165-.618649.412279-1.224811.682451-1.807135.0719-.357.152779-.713433.400484-.999487.341506 0 .177493.416027.388126.570973.106721.274135.188728.547135.319039.808784.152218.52273.411156 1.023892.529111 1.557973.05785.07095.105597.177649.199399.190135.164575 0 .12975-.202054.153903-.321243.0455-.09478-.03595-.261081.08144-.308757.23591.166865.23591.547135.589211.641919.163452.02497.306121-.03519.434747-.118622.09436-.08286.153341-.202621.129189-.321243-.306121-.404108-.764458-.641351-1.058783-1.046027-.282529-.19127-.411717-.499459-.423513-.833189-.09436-.391622.176932-.677108.459461-.880297.281406-.153811.622351.08343.893646-.09478.119078-.01192.271296 0 .294325.143027" fill="#231f20" fill-rule="nonzero"/><path d="m17.09049 29.472649c.09549.29627.248266.594243.212318.914919-.235347.154945-.506081 0-.741428-.03576-.08201-.07151-.02359-.190135 0-.272433.01179-.309892.176932-.57154.342068-.808783.116269-.000568.140984.131108.187042.202054m3.707705 4.577432c.03482.178216-.153903.08286-.235348.131108-.634707-.03576-1.200328.07038-1.812568.01192-.470695.07095-.870055-.02384-1.317721.02327-.05898-.04711-.08257-.13054-.04718-.213973.424074-.202621.953185-.249729 1.424441-.261648.540906-.04768 1.022835.02384 1.553068 0 .188728.000567.353302.178216.435309.309324m-4.942296-.225324c.03426.106703.129189.01192.1994.05959.130311.08286.364535.08286.364535.296838-.163451.08286-.39936.09422-.563935.03519-.56562.119757-1.154269-.03519-1.729438.03519-.43587-.0823-.847588.03632-1.271662-.04711-.04718-.02327-.02359-.08286-.03595-.142459.517876-.475622 1.200889-.190135 1.859188-.296838.412841.0596.765019 0 1.17786.0596m1.412085.927973c.04718.165729.03482.356432-.01236.509675-.06965.107271-.199961.238379-.341507.143595-.199399-.19127-.258377-.501162-.164575-.772459.07077-.09592.09436-.214541.212319-.296838.224113.01078.224113.272432.30612.416027" fill="#fff" fill-rule="nonzero"/><path d="m30.720419 25.253919-13.971997-14.378757-14.1449967 13.881568s.4544059.973946.6700942 1.326973c.1095292.179351.3875649.841135 1.108211 2.045513.6509968 1.08973 1.4098377 2.143135 1.4098377 2.143135l11.0029118-11.413783 11.093345 11.220243 1.039685-1.576135 1.08125-1.851973z" fill="#fff" fill-rule="nonzero"/><path d="m30.720419 25.253919-13.971997-14.378757-14.1449967 13.881568s.4544059.973946.6700942 1.326973c.1095292.179351.3875649.841135 1.108211 2.045513.6509968 1.08973 1.4098377 2.143135 1.4098377 2.143135l11.0029118-11.413783 11.093345 11.220243 1.039685-1.576135 1.08125-1.851973z" stroke="#231f20" stroke-linejoin="round" stroke-width=".5"/></g></svg>